# xmcd
#
# Track frame offsets: 
#        150
#        24670
#        41925
#        55605
#        76980
#        92630
#        108412
#        125252
#        141910
#        163680
#        176635
#
# Disc length: 2596 seconds
#
# Revision: 2
# Processed by: cddbd v1.5.2PL0 Copyright (c) Steve Scherf et al.
# Submitted via: ExactAudioCopy v0.99pb4
#
DISCID=8e0a220b
DTITLE=Albert King - The Blues Don't Change
DYEAR=1974
DGENRE=Blues
TTITLE0=The Blues Don't Change
TTITLE1=I'm Doing Fine
TTITLE2=Nice To Be Nice (Ain't That Nice)
TTITLE3=Oh, Pretty Woman
TTITLE4=King Of Kings
TTITLE5=Feel The Need
TTITLE6=Firing Line (I Don't Play With Your Woman, You Don't Play With
TTITLE6=Mine)
TTITLE7=The Pinch Paid Off (Part 1)
TTITLE8=The Pinch Paid Off (Part 2)
TTITLE9=I Can't Stand The Rain
TTITLE10=Ain't It Beautiful
EXTD=Albert King - The Blues Don't Change\n1973 - 1974\n© 1977 - 1992\n
EXTD=Label: Stax Records - Fantasy Inc.\nSCD-8570-2 (STX-4101]\nDigita
EXTD=lly Remastered
EXTT0=
EXTT1=
EXTT2=
EXTT3=
EXTT4=
EXTT5=
EXTT6=
EXTT7=
EXTT8=
EXTT9=
EXTT10=
PLAYORDER=
